@startuml
'https://plantuml.com/state-diagram

[*] --> DEFAULT

DEFAULT-->UP : Start/Stop (sec == 0)
DEFAULT-->DEFAULT : Reset or M and S
DEFAULT-->M : press M
DEFAULT-->S : press S

M-->M : [*]: (sec+=60 and sleep)
M-->DOWN_PAUSE: release M (old_sec = sec)

S-->S : [*]: (sec+=1 and sleep)
S-->DOWN_PAUSE: release S (old_sec = sec)

UP-->DEFAULT : Reset or M and S
UP-->UP_PAUSE :  Start/Stop or M or S
UP-->UP : [*]: (sec+=1)

DOWN-->DEFAULT : Reset or M and S
DOWN-->DOWN_PAUSE :  Start/Stop or M or S
DOWN-->BEEP :  sec == 0
DOWN-->DOWN : [*]: (sec-=1)

UP_PAUSE-->DEFAULT : Reset or M and S
UP_PAUSE-->UP : Start/Stop
UP_PAUSE-->M : press M
UP_PAUSE-->S : press S

DOWN_PAUSE-->DEFAULT : Reset or M and S
DOWN_PAUSE-->DOWN: Start/Stop
DOWN_PAUSE-->S : press S
DOWN_PAUSE-->M : press M

BEEP-->DEFAULT: Reset or M and S
BEEP-->DOWN_PAUSE: Start/Stop (sec == old_sec)
BEEP-->SAVED_TIME: M or S

SAVED_TIME-->DOWN_PAUSE: Start/Stop (sec == old_sec)
SAVED_TIME-->M: M (sec+=60)
SAVED_TIME-->S: S (sec+=1)
@enduml